<svg xmlns="http://www.w3.org/2000/svg">
  <symbol viewBox="0 0 24 18" id="icon-toggle">
    <path stroke="#000" stroke-width="1.5" d="M0 1.25h24M0 9.25h24M0 17.25h24"/>
  </symbol>
  <symbol viewBox="0 0 128 24" id="icon-logo">
    <g clip-path="url(#a)" fill="#111"><path d="M1.603 22.051A9.498 9.498 0 0 1 0 16.308V7.795a9.63 9.63 0 0 1 1.502-5.846C2.604.615 4.307 0 6.811 0s4.106.615 5.108 1.744a7.487 7.487 0 0 1 1.502 5.025v2.052H8.513V6.46a5.157 5.157 0 0 0-.3-2.05 1.463 1.463 0 0 0-.579-.63 1.415 1.415 0 0 0-.823-.191c-.701 0-1.202.205-1.403.718a6.774 6.774 0 0 0-.3 2.256v10.974a4.334 4.334 0 0 0 .4 2.154c.2.513.702.718 1.403.718.7 0 1.102-.205 1.302-.718.228-.693.33-1.423.3-2.154v-2.461h4.908v2.051a7.98 7.98 0 0 1-1.502 5.128c-1.002 1.231-2.705 1.847-5.108 1.847-2.404-.103-4.207-.718-5.208-2.052ZM19.33.308h5.71l4.206 23.384h-4.607l-.802-4.923h-3.305l-.801 4.923h-4.708L19.33.308Zm4.107 15.384-1.202-9.128-1.202 9.128h2.404ZM32.751 4.205h-3.405V.308h11.918v3.795H37.86v19.59h-5.108V4.204ZM50.379.308h8.814v2.461h-5.71v7.693h4.608v2.359h-4.607v8.615h5.709v2.359h-8.914V.308h.1ZM61.797.308H64l6.51 15.487V.308h2.604v23.384h-2.003l-6.61-16v16h-2.704V.308ZM76.119.308h8.814v2.461h-5.71v7.693h4.608v2.359h-4.607v8.615h5.709v2.359h-8.814V.308ZM87.537.308h4.607a7.873 7.873 0 0 1 5.108 1.436c1.102.923 1.602 2.564 1.602 4.718 0 2.974-.901 4.82-2.804 5.436l3.205 11.692H96.15l-3.005-10.975h-2.503V23.59h-3.205V.308h.1Zm4.407 10.051a4.302 4.302 0 0 0 2.904-.82c.601-.513.902-1.539.902-3.077a6.772 6.772 0 0 0-.3-2.257 2.583 2.583 0 0 0-1.103-1.23 4.473 4.473 0 0 0-2.203-.41h-1.402v7.691h1.202v.103ZM102.861 21.949a10.566 10.566 0 0 1-1.402-5.95V8.206c-.025-1.486.143-2.97.5-4.41a5.204 5.204 0 0 1 1.903-2.667 6.421 6.421 0 0 1 3.706-.923c2.103 0 3.606.513 4.507 1.641a7.982 7.982 0 0 1 1.402 5.128v.82h-3.004v-.717a15.503 15.503 0 0 0-.201-2.564 2.056 2.056 0 0 0-.801-1.334 3.04 3.04 0 0 0-1.903-.512 2.955 2.955 0 0 0-2.003.615 2.349 2.349 0 0 0-.801 1.641 19.734 19.734 0 0 0-.201 2.77v8.717a9.527 9.527 0 0 0 .601 3.898c.401.82 1.202 1.128 2.404 1.128.475.06.956-.024 1.384-.243a2.45 2.45 0 0 0 1.02-.988 9.635 9.635 0 0 0 .701-4.102V14.46h-2.905v-2.359h5.809v11.59h-2.003l-.3-2.666a4.18 4.18 0 0 1-1.554 2.21 4.016 4.016 0 0 1-2.553.764 4.907 4.907 0 0 1-2.406-.47 5.037 5.037 0 0 1-1.9-1.581ZM119.987 15.487 115.08.41h3.004l3.506 11.282L124.995.41H128l-4.908 15.077v8.205h-3.004v-8.205h-.101Z"/></g><defs><clipPath id="a"><path fill="#fff" d="M0 0h128v24H0z"/></clipPath></defs>
  </symbol>
  <symbol viewBox="0 0 28 22" id="icon-vkontakte">
    <path d="M1 5.339c0-.855.515-1.316 1.545-1.383l3.97.025a.52.52 0 0 1 .533.377c.409 1.257.866 2.343 1.372 3.257.506.913 1.168 1.965 1.985 3.156.071.15.187.226.346.226.125 0 .223-.059.293-.176l.08-.277.027-4.35c0-.302-.075-.503-.226-.604-.151-.1-.431-.176-.84-.226-.32-.05-.48-.235-.48-.553 0-.067.01-.118.027-.151.373-1.09 1.44-1.635 3.198-1.635L14.322 3c.675 0 1.234.16 1.678.478.444.318.666.821.666 1.509v5.708c.125.084.24.126.347.126.266 0 .497-.15.692-.453 1.954-2.582 3.011-4.308 3.17-5.18 0-.017.019-.059.054-.126.125-.251.329-.47.613-.654.284-.184.533-.31.746-.377a.554.554 0 0 1 .24-.05h4.13l.266.025c.355 0 .63.16.826.478.07.1.12.21.146.327.027.117.045.234.054.352.009.117.013.184.013.2v.177c-.124.687-.44 1.42-.946 2.2-.506.78-1.15 1.622-1.931 2.528-.782.905-1.27 1.5-1.466 1.785-.16.201-.24.386-.24.553 0 .135.071.286.213.453l3.89 4.627c.213.269.32.562.32.88 0 .386-.16.705-.48.956-.32.252-.701.394-1.145.428l-.453.025h-4.05a.855.855 0 0 0-.106.012.862.862 0 0 1-.107.013c-.39 0-.755-.16-1.092-.478-.125-.134-.96-1.123-2.505-2.967a1.387 1.387 0 0 0-.373-.327c-.07.268-.164.654-.28 1.157-.115.503-.2.863-.253 1.081l-.08.427c-.177.587-.55.94-1.119 1.057l-.373.025h-2.61c-1.475 0-2.945-.637-4.41-1.911-1.466-1.275-2.784-2.922-3.957-4.942-1.172-2.02-2.264-4.372-3.277-7.054A1.916 1.916 0 0 1 1 5.338Zm16.013 6.513c-.373 0-.71-.096-1.013-.29-.302-.192-.453-.456-.453-.791V4.987c0-.336-.089-.575-.266-.717-.178-.143-.489-.214-.933-.214l-1.518.05c-.764 0-1.341.126-1.732.378.781.352 1.172.922 1.172 1.71v4.426a1.5 1.5 0 0 1-.533 1.044 1.59 1.59 0 0 1-1.066.414c-.532 0-.94-.243-1.225-.729C8.06 9.371 7.03 7.493 6.356 5.716l-.24-.654-3.544-.025c-.231 0-.36.013-.386.038-.027.025-.04.096-.04.213 0 .151.017.31.053.478l.56 1.409c1.491 3.638 3.112 6.505 4.862 8.6 1.75 2.096 3.468 3.144 5.155 3.144h2.665c.106 0 .186-.03.24-.088.053-.06.097-.172.133-.34l.053-.251.506-2.213c.142-.302.267-.503.373-.604a.975.975 0 0 1 .693-.277c.426 0 .861.243 1.305.73l2.265 2.716c.142.218.293.327.453.327h4.396c.533 0 .8-.126.8-.378a.466.466 0 0 0-.08-.251l-3.864-4.552c-.302-.352-.453-.73-.453-1.131 0-.403.142-.788.427-1.157.23-.336.679-.893 1.345-1.673a37.63 37.63 0 0 0 1.745-2.187c.498-.68.826-1.296.986-1.849l.08-.327a.371.371 0 0 1-.027-.163.574.574 0 0 0-.026-.189h-4.183c-.267.1-.48.252-.64.453l-.16.478c-.444 1.156-1.607 2.942-3.49 5.356a1.892 1.892 0 0 1-1.305.503Z" fill="#666"/>
  </symbol>
  <symbol viewBox="0 0 28 22" id="icon-youtube">
    <path d="m17.85 10.8-5.24-3.5a.65.65 0 0 0-1.01.55v6.98a.65.65 0 0 0 1.01.54l5.24-3.49a.65.65 0 0 0 0-1.09Zm-4.94 2.8V9.08l3.4 2.27-3.4 2.27Zm12.48-8.56a2.4 2.4 0 0 0-1.45-1.63C20.22 1.98 14.25 2 14 2s-6.22-.02-9.94 1.4a2.4 2.4 0 0 0-1.45 1.64 25.32 25.32 0 0 0-.61 6.3c0 3.26.33 5.22.61 6.3a2.4 2.4 0 0 0 1.45 1.63c3.72 1.43 9.69 1.4 9.94 1.4h.08c.75 0 6.31-.04 9.86-1.4a2.4 2.4 0 0 0 1.45-1.64c.28-1.07.61-3.03.61-6.3 0-3.25-.33-5.22-.61-6.29Zm-1.27 12.27a1.1 1.1 0 0 1-.65.74c-3.5 1.34-9.4 1.32-9.47 1.32-.07 0-5.98.02-9.47-1.32a1.09 1.09 0 0 1-.65-.74c-.27-1-.57-2.85-.57-5.97 0-3.12.3-4.97.57-5.97a1.1 1.1 0 0 1 .65-.74C8.03 3.29 13.93 3.3 14 3.3c.07 0 5.98-.02 9.47 1.32a1.1 1.1 0 0 1 .65.74c.27 1 .57 2.85.57 5.97 0 3.12-.3 4.96-.57 5.97Z" fill="#666" />
  </symbol>
  <symbol viewBox="0 0 28 22" id="icon-telegram">
    <path fill-rule="evenodd" clip-rule="evenodd" d="M23.46 3.15c.18.15.27.38.23.61l-2.63 15.76a.66.66 0 0 1-1.01.44l-7.88-5.25a.66.66 0 0 1-.15-.96l2.61-3.26-4.36 2.9a.66.66 0 0 1-.65.05L4.36 10.8a.66.66 0 0 1 .08-1.2l18.38-6.57a.66.66 0 0 1 .64.11ZM6.33 10.32l3.53 1.77 7.56-5.04a.66.66 0 0 1 .88.96l-4.8 6 6.43 4.3 2.28-13.66-15.88 5.67Z" fill="#666" />
  </symbol>
  <symbol viewBox="0 0 27 34" id="icon-copyright">
    <path d="M13.64.02 13.5 0 0 1.4v24.61L13.5 34 27 26.01V1.41L13.64 0Zm11.6 25L13.5 31.96 1.77 25.02v-10.1l11.68 6.93.02 1.25-8.02-4.75v1.23l8.04 4.8.02 1.3-8.05-4.76v1.22l8.04 4.81 8.12-4.83V16.9l3.62-2.15v10.26Zm0-11.57L22 15.33l-1.48.88-7.06-4.19-.01 1.23 6.04 3.57-.06.03-.13.07-.86.5-4.98-2.95-.01 1.22 3.93 2.33-.93.61-.02.01-2.97-1.74-.01 1.23 1.94 1.13-1.98 1.19L1.8 13.58l11.63-6.96 11.8 6.83Zm0-1.22L13.43 5.3 1.77 12.22V2.99L13.5 1.76 25.23 3v9.24Z" fill="#666" />
  <symbol>
  <symbol viewBox="0 0 19 14" fill="none" id="icon-email">
    <path stroke="#222" stroke-width="1.3" d="M1.19 6v8M18.19 6v8M.54 13.35h18M.54 1.35h18M17.89 3.182 9.54 9.677 1.19 3.182V1.65h16.7v1.532Z"/>
  </symbol>
  <symbol viewBox="0 0 20 21" id="icon-phone">
    <g clip-path="url(#a)" fill="#000"> <path d="M17.9 9.75H9.4v1.2h8.5l-2.1 2.11.9.9 3.1-3.1a.75.75 0 0 0 0-.9l-3.1-3.12-.9.9 2.1 2.01ZM8.1 19.79v-6.22a.65.65 0 0 0-.6-.6H3.1a1.23 1.23 0 0 0 1.2 1.2h2.5v5.02H3.1a1.78 1.78 0 0 1-1.9-1.71V3.43a1.78 1.78 0 0 1 1.7-1.8h3.9v5.01H4.4a1.22 1.22 0 0 0-1.2 1.2h4.4a.65.65 0 0 0 .6-.6V.92a.86.86 0 0 0-.7-.6H3.1A3 3 0 0 0 0 3.23v13.95a2.9 2.9 0 0 0 2.9 3.1h4.6a.5.5 0 0 0 .6-.5Z" /> </g> <defs> <clipPath id="a"> <path fill="#fff" transform="translate(0 .32)" d="M0 0h20v20.07H0z" /> </clipPath> </defs>
  </symbol>
</svg>
